<svg width="16" height="16" viewBox="0 0 16 16" fill="none" xmlns="http://www.w3.org/2000/svg">
<path fill-rule="evenodd" clip-rule="evenodd" d="M0 14.5C0 15.3284 0.671573 16 1.5 16H14.5C15.3284 16 16 15.3284 16 14.5V1.5C16 0.671573 15.3284 0 14.5 0H6.4H4H1.5C0.671573 0 0 0.671573 0 1.5V14.5Z" fill="#377DFF"/>
<path fill-rule="evenodd" clip-rule="evenodd" d="M7.375 11C7.09375 11 6.8125 10.9 6.5875 10.7L4.3375 8.7C3.8875 8.3 3.8875 7.7 4.3375 7.3C4.7875 6.9 5.51875 6.9 5.9125 7.3L7.375 8.6L11.0875 5.3C11.5375 4.9 12.2125 4.9 12.6625 5.3C13.1125 5.7 13.1125 6.3 12.6625 6.7L8.1625 10.7C7.9375 10.9 7.65625 11 7.375 11Z" fill="white"/>
</svg>
