<svg width="17" height="16" viewBox="0 0 17 16" fill="none" xmlns="http://www.w3.org/2000/svg">
<path fill-rule="evenodd" clip-rule="evenodd" d="M1.01772 10.2445C1.66935 9.57647 2.55316 9.20117 3.47471 9.20117H8.64638C9.56793 9.20117 10.4517 9.57647 11.1034 10.2445C11.755 10.9125 12.1211 11.8186 12.1211 12.7633V14.0887C12.1211 14.592 11.8 15 11.3091 15C10.8181 15 10.497 14.592 10.497 14.0887V12.5C10.497 12.0386 10.3182 11.5961 10 11.2699C9.68176 10.9436 9.25013 10.7604 8.80007 10.7604H3.19993C2.74987 10.7604 2.31824 10.9436 2 11.2699C1.68176 11.5961 1.50297 12.0386 1.50297 12.5V14.0887C1.50297 14.592 1.2424 15 0.751487 15C0.260572 15 0 14.592 0 14.0887V12.7633C0 11.8186 0.366085 10.9125 1.01772 10.2445Z" fill="white"/>
<path fill-rule="evenodd" clip-rule="evenodd" d="M1.01772 10.2445C1.66935 9.57647 2.55316 9.20117 3.47471 9.20117H8.64638C9.56793 9.20117 10.4517 9.57647 11.1034 10.2445C11.755 10.9125 12.1211 11.8186 12.1211 12.7633V14.0887C12.1211 14.592 11.8 15 11.3091 15C10.8181 15 10.497 14.592 10.497 14.0887V12.5C10.497 12.0386 10.3182 11.5961 10 11.2699C9.68176 10.9436 9.25013 10.7604 8.80007 10.7604H3.19993C2.74987 10.7604 2.31824 10.9436 2 11.2699C1.68176 11.5961 1.50297 12.0386 1.50297 12.5V14.0887C1.50297 14.592 1.2424 15 0.751487 15C0.260572 15 0 14.592 0 14.0887V12.7633C0 11.8186 0.366085 10.9125 1.01772 10.2445Z" fill="#4E5D78" fill-opacity="0.1"/>
<path fill-rule="evenodd" clip-rule="evenodd" d="M6.06065 2.5C5 2.5 4 3 4 4.56213C4 6 5 6.5 6.06065 6.5C6.99785 6.5 8 6 8 4.56213C8 3 6.99785 2.5 6.06065 2.5ZM2.58594 4.56213C2.58594 2.59482 4.14162 1 6.06065 1C7.97968 1 9.53536 2.59482 9.53536 4.56213C9.53536 6.52944 7.97968 8.12426 6.06065 8.12426C4.14162 8.12426 2.58594 6.52944 2.58594 4.56213Z" fill="white"/>
<path fill-rule="evenodd" clip-rule="evenodd" d="M6.06065 2.5C5 2.5 4 3 4 4.56213C4 6 5 6.5 6.06065 6.5C6.99785 6.5 8 6 8 4.56213C8 3 6.99785 2.5 6.06065 2.5ZM2.58594 4.56213C2.58594 2.59482 4.14162 1 6.06065 1C7.97968 1 9.53536 2.59482 9.53536 4.56213C9.53536 6.52944 7.97968 8.12426 6.06065 8.12426C4.14162 8.12426 2.58594 6.52944 2.58594 4.56213Z" fill="#4E5D78" fill-opacity="0.1"/>
<path fill-rule="evenodd" clip-rule="evenodd" d="M12.3125 10.1127C12.3125 9.5 12.92 9.10456 13.3954 9.23037C14.1408 9.42769 14.8012 9.87321 15.2729 10.497C15.7446 11.1208 16.0008 11.8875 16.0014 12.6767V14.0029C16.0014 14.5061 15.7419 14.9141 15.251 14.9141C14.76 14.9141 14.5005 14.5061 14.5005 14.0029L14.5008 12.6778C14.5005 12.2925 14.3754 11.9181 14.1451 11.6136C13.9147 11.3089 13.5922 11.0913 13.2281 10.995C12.7528 10.8692 12.313 10.5 12.3125 10.1127Z" fill="white"/>
<path fill-rule="evenodd" clip-rule="evenodd" d="M12.3125 10.1127C12.3125 9.5 12.92 9.10456 13.3954 9.23037C14.1408 9.42769 14.8012 9.87321 15.2729 10.497C15.7446 11.1208 16.0008 11.8875 16.0014 12.6767V14.0029C16.0014 14.5061 15.7419 14.9141 15.251 14.9141C14.76 14.9141 14.5005 14.5061 14.5005 14.0029L14.5008 12.6778C14.5005 12.2925 14.3754 11.9181 14.1451 11.6136C13.9147 11.3089 13.5922 11.0913 13.2281 10.995C12.7528 10.8692 12.313 10.5 12.3125 10.1127Z" fill="#4E5D78" fill-opacity="0.1"/>
<path fill-rule="evenodd" clip-rule="evenodd" d="M9.72554 1.77162C9.8473 1.28408 10.3315 0.990048 10.8071 1.11488C11.5545 1.31106 12.217 1.75669 12.6901 2.38149C13.1632 3.0063 13.42 3.77475 13.42 4.56569C13.42 5.35664 13.1632 6.12508 12.6901 6.74989C12.217 7.3747 11.5545 7.82032 10.8071 8.0165C10.3315 8.14133 9.8473 7.8473 9.72554 7.35976C9.60377 6.87222 10.1048 6.3758 10.5804 6.25097C10.9454 6.15516 11.269 5.93753 11.5 5.63239C11.731 5.32725 11.8564 4.95197 11.8564 4.56569C11.8564 4.17942 11.731 3.80413 11.5 3.49899C11.269 3.19385 10.9454 2.97622 10.5804 2.88041C10.1048 2.75558 9.60377 2.25916 9.72554 1.77162Z" fill="white"/>
<path fill-rule="evenodd" clip-rule="evenodd" d="M9.72554 1.77162C9.8473 1.28408 10.3315 0.990048 10.8071 1.11488C11.5545 1.31106 12.217 1.75669 12.6901 2.38149C13.1632 3.0063 13.42 3.77475 13.42 4.56569C13.42 5.35664 13.1632 6.12508 12.6901 6.74989C12.217 7.3747 11.5545 7.82032 10.8071 8.0165C10.3315 8.14133 9.8473 7.8473 9.72554 7.35976C9.60377 6.87222 10.1048 6.3758 10.5804 6.25097C10.9454 6.15516 11.269 5.93753 11.5 5.63239C11.731 5.32725 11.8564 4.95197 11.8564 4.56569C11.8564 4.17942 11.731 3.80413 11.5 3.49899C11.269 3.19385 10.9454 2.97622 10.5804 2.88041C10.1048 2.75558 9.60377 2.25916 9.72554 1.77162Z" fill="#4E5D78" fill-opacity="0.1"/>
</svg>
