<svg width="16" height="16" viewBox="0 0 16 16" fill="none" xmlns="http://www.w3.org/2000/svg">
<path fill-rule="evenodd" clip-rule="evenodd" d="M8.72736 6.54549C9.12902 6.54549 9.45463 6.8711 9.45463 7.27276V13.8182C9.45463 14.2199 9.12902 14.5455 8.72736 14.5455H2.18191C1.78024 14.5455 1.45463 14.2199 1.45463 13.8182V7.27276C1.45463 6.8711 1.78024 6.54549 2.18191 6.54549H8.72736ZM10.9092 7.27276C10.9092 6.06778 9.93235 5.09094 8.72736 5.09094H2.18191C0.976921 5.09094 8.86917e-05 6.06778 8.86917e-05 7.27276V13.8182C8.86917e-05 15.0232 0.976921 16 2.18191 16H8.72736C9.93235 16 10.9092 15.0232 10.9092 13.8182V7.27276Z" fill="white"/>
<path fill-rule="evenodd" clip-rule="evenodd" d="M8.72736 6.54549C9.12902 6.54549 9.45463 6.8711 9.45463 7.27276V13.8182C9.45463 14.2199 9.12902 14.5455 8.72736 14.5455H2.18191C1.78024 14.5455 1.45463 14.2199 1.45463 13.8182V7.27276C1.45463 6.8711 1.78024 6.54549 2.18191 6.54549H8.72736ZM10.9092 7.27276C10.9092 6.06778 9.93235 5.09094 8.72736 5.09094H2.18191C0.976921 5.09094 8.86917e-05 6.06778 8.86917e-05 7.27276V13.8182C8.86917e-05 15.0232 0.976921 16 2.18191 16H8.72736C9.93235 16 10.9092 15.0232 10.9092 13.8182V7.27276Z" fill="#4E5D78" fill-opacity="0.1"/>
<path fill-rule="evenodd" clip-rule="evenodd" d="M13.8182 1.45455C14.0111 1.45455 14.1961 1.53117 14.3324 1.66756C14.4688 1.80395 14.5455 1.98893 14.5455 2.18182V8.72727C14.5455 8.92016 14.4688 9.10514 14.3324 9.24153C14.1961 9.37792 14.0111 9.45455 13.8182 9.45455H13.0909C12.6892 9.45455 12.3636 9.78016 12.3636 10.1818C12.3636 10.5835 12.6892 10.9091 13.0909 10.9091H13.8182C14.3968 10.9091 14.9518 10.6792 15.361 10.2701C15.7701 9.86088 16 9.30593 16 8.72727V2.18182C16 1.60316 15.7701 1.04821 15.361 0.63904C14.9518 0.229869 14.3968 0 13.8182 0H7.27273C6.69407 0 6.13912 0.229869 5.72995 0.63904C5.32078 1.04821 5.09091 1.60316 5.09091 2.18182V2.90909C5.09091 3.31075 5.41652 3.63636 5.81818 3.63636C6.21984 3.63636 6.54545 3.31075 6.54545 2.90909V2.18182C6.54545 1.98893 6.62208 1.80395 6.75847 1.66756C6.89486 1.53117 7.07984 1.45455 7.27273 1.45455H13.8182Z" fill="white"/>
<path fill-rule="evenodd" clip-rule="evenodd" d="M13.8182 1.45455C14.0111 1.45455 14.1961 1.53117 14.3324 1.66756C14.4688 1.80395 14.5455 1.98893 14.5455 2.18182V8.72727C14.5455 8.92016 14.4688 9.10514 14.3324 9.24153C14.1961 9.37792 14.0111 9.45455 13.8182 9.45455H13.0909C12.6892 9.45455 12.3636 9.78016 12.3636 10.1818C12.3636 10.5835 12.6892 10.9091 13.0909 10.9091H13.8182C14.3968 10.9091 14.9518 10.6792 15.361 10.2701C15.7701 9.86088 16 9.30593 16 8.72727V2.18182C16 1.60316 15.7701 1.04821 15.361 0.63904C14.9518 0.229869 14.3968 0 13.8182 0H7.27273C6.69407 0 6.13912 0.229869 5.72995 0.63904C5.32078 1.04821 5.09091 1.60316 5.09091 2.18182V2.90909C5.09091 3.31075 5.41652 3.63636 5.81818 3.63636C6.21984 3.63636 6.54545 3.31075 6.54545 2.90909V2.18182C6.54545 1.98893 6.62208 1.80395 6.75847 1.66756C6.89486 1.53117 7.07984 1.45455 7.27273 1.45455H13.8182Z" fill="#4E5D78" fill-opacity="0.1"/>
</svg>
