<svg width="16" height="16" viewBox="0 0 16 16" fill="none" xmlns="http://www.w3.org/2000/svg">
<path fill-rule="evenodd" clip-rule="evenodd" d="M0.674402 2.17355C1.10621 1.74173 1.69188 1.49915 2.30255 1.49915H7.25037C7.74129 1.49915 8.13926 1.89711 8.13926 2.38803C8.13926 2.87895 7.74129 3.27692 7.25037 3.27692H2.30255C2.16337 3.27692 2.02989 3.33221 1.93148 3.43063C1.83307 3.52904 1.77778 3.66252 1.77778 3.8017V13.6973C1.77778 13.8365 1.83307 13.97 1.93148 14.0684C2.02989 14.1668 2.16337 14.2221 2.30255 14.2221H12.1982C12.3374 14.2221 12.4708 14.1668 12.5693 14.0684C12.6677 13.97 12.723 13.8365 12.723 13.6973V8.74952C12.723 8.2586 13.1209 7.86063 13.6119 7.86063C14.1028 7.86063 14.5007 8.2586 14.5007 8.74952V13.6973C14.5007 14.308 14.2582 14.8937 13.8263 15.3255C13.3945 15.7573 12.8089 15.9999 12.1982 15.9999H2.30255C1.69188 15.9999 1.10621 15.7573 0.674402 15.3255C0.24259 14.8937 0 14.308 0 13.6973V3.8017C0 3.19102 0.242589 2.60536 0.674402 2.17355Z" fill="white"/>
<path fill-rule="evenodd" clip-rule="evenodd" d="M0.674402 2.17355C1.10621 1.74173 1.69188 1.49915 2.30255 1.49915H7.25037C7.74129 1.49915 8.13926 1.89711 8.13926 2.38803C8.13926 2.87895 7.74129 3.27692 7.25037 3.27692H2.30255C2.16337 3.27692 2.02989 3.33221 1.93148 3.43063C1.83307 3.52904 1.77778 3.66252 1.77778 3.8017V13.6973C1.77778 13.8365 1.83307 13.97 1.93148 14.0684C2.02989 14.1668 2.16337 14.2221 2.30255 14.2221H12.1982C12.3374 14.2221 12.4708 14.1668 12.5693 14.0684C12.6677 13.97 12.723 13.8365 12.723 13.6973V8.74952C12.723 8.2586 13.1209 7.86063 13.6119 7.86063C14.1028 7.86063 14.5007 8.2586 14.5007 8.74952V13.6973C14.5007 14.308 14.2582 14.8937 13.8263 15.3255C13.3945 15.7573 12.8089 15.9999 12.1982 15.9999H2.30255C1.69188 15.9999 1.10621 15.7573 0.674402 15.3255C0.24259 14.8937 0 14.308 0 13.6973V3.8017C0 3.19102 0.242589 2.60536 0.674402 2.17355Z" fill="#4E5D78" fill-opacity="0.1"/>
<path fill-rule="evenodd" clip-rule="evenodd" d="M13.6121 1.77778C13.4502 1.77778 13.2949 1.8421 13.1804 1.9566L6.63958 8.4974L6.35178 9.64862L7.503 9.36082L14.0438 2.82001C14.1583 2.70552 14.2226 2.55023 14.2226 2.3883C14.2226 2.22638 14.1583 2.07109 14.0438 1.9566C13.9293 1.8421 13.774 1.77778 13.6121 1.77778ZM11.9233 0.699518C12.3712 0.251624 12.9787 0 13.6121 0C14.2455 0 14.853 0.251624 15.3009 0.699518C15.7488 1.14741 16.0004 1.75489 16.0004 2.3883C16.0004 3.02172 15.7488 3.6292 15.3009 4.07709L8.58598 10.792C8.47206 10.9059 8.32933 10.9867 8.17303 11.0258L5.34571 11.7326C5.04279 11.8084 4.72236 11.7196 4.50158 11.4988C4.2808 11.278 4.19204 10.9576 4.26777 10.6547L4.9746 7.82737C5.01368 7.67107 5.09449 7.52834 5.20841 7.41442L11.9233 0.699518Z" fill="white"/>
<path fill-rule="evenodd" clip-rule="evenodd" d="M13.6121 1.77778C13.4502 1.77778 13.2949 1.8421 13.1804 1.9566L6.63958 8.4974L6.35178 9.64862L7.503 9.36082L14.0438 2.82001C14.1583 2.70552 14.2226 2.55023 14.2226 2.3883C14.2226 2.22638 14.1583 2.07109 14.0438 1.9566C13.9293 1.8421 13.774 1.77778 13.6121 1.77778ZM11.9233 0.699518C12.3712 0.251624 12.9787 0 13.6121 0C14.2455 0 14.853 0.251624 15.3009 0.699518C15.7488 1.14741 16.0004 1.75489 16.0004 2.3883C16.0004 3.02172 15.7488 3.6292 15.3009 4.07709L8.58598 10.792C8.47206 10.9059 8.32933 10.9867 8.17303 11.0258L5.34571 11.7326C5.04279 11.8084 4.72236 11.7196 4.50158 11.4988C4.2808 11.278 4.19204 10.9576 4.26777 10.6547L4.9746 7.82737C5.01368 7.67107 5.09449 7.52834 5.20841 7.41442L11.9233 0.699518Z" fill="#4E5D78" fill-opacity="0.1"/>
</svg>
