<svg width="14" height="14" viewBox="0 0 14 14" fill="none" xmlns="http://www.w3.org/2000/svg">
<path d="M8.55556 12.4444H12.4444V1.55556H1.55556V12.4444H7V8.55556H5.44444V7H7V5.71356C7 4.67367 7.10889 4.29644 7.31111 3.91611C7.51031 3.53981 7.81819 3.2322 8.19467 3.03333C8.49178 2.87389 8.86122 2.77822 9.50678 2.737C9.76267 2.72067 10.094 2.74089 10.5008 2.79922V4.277H10.1111C9.39789 4.277 9.10311 4.31044 8.92733 4.40456C8.82245 4.4585 8.73705 4.54389 8.68311 4.64878C8.58978 4.82456 8.55556 4.99878 8.55556 5.71278V7H10.5L10.1111 8.55556H8.55556V12.4444ZM0.777778 0H13.2222C13.4285 0 13.6263 0.0819442 13.7722 0.227806C13.9181 0.373667 14 0.571498 14 0.777778V13.2222C14 13.4285 13.9181 13.6263 13.7722 13.7722C13.6263 13.9181 13.4285 14 13.2222 14H0.777778C0.571498 14 0.373667 13.9181 0.227806 13.7722C0.0819442 13.6263 0 13.4285 0 13.2222V0.777778C0 0.571498 0.0819442 0.373667 0.227806 0.227806C0.373667 0.0819442 0.571498 0 0.777778 0Z" fill="white"/>
<path d="M8.55556 12.4444H12.4444V1.55556H1.55556V12.4444H7V8.55556H5.44444V7H7V5.71356C7 4.67367 7.10889 4.29644 7.31111 3.91611C7.51031 3.53981 7.81819 3.2322 8.19467 3.03333C8.49178 2.87389 8.86122 2.77822 9.50678 2.737C9.76267 2.72067 10.094 2.74089 10.5008 2.79922V4.277H10.1111C9.39789 4.277 9.10311 4.31044 8.92733 4.40456C8.82245 4.4585 8.73705 4.54389 8.68311 4.64878C8.58978 4.82456 8.55556 4.99878 8.55556 5.71278V7H10.5L10.1111 8.55556H8.55556V12.4444ZM0.777778 0H13.2222C13.4285 0 13.6263 0.0819442 13.7722 0.227806C13.9181 0.373667 14 0.571498 14 0.777778V13.2222C14 13.4285 13.9181 13.6263 13.7722 13.7722C13.6263 13.9181 13.4285 14 13.2222 14H0.777778C0.571498 14 0.373667 13.9181 0.227806 13.7722C0.0819442 13.6263 0 13.4285 0 13.2222V0.777778C0 0.571498 0.0819442 0.373667 0.227806 0.227806C0.373667 0.0819442 0.571498 0 0.777778 0Z" fill="#4E5D78" fill-opacity="0.1"/>
</svg>
