<svg width="17" height="18" viewBox="0 0 17 18" fill="none" xmlns="http://www.w3.org/2000/svg">
<path fill-rule="evenodd" clip-rule="evenodd" d="M5.83594 0.75C6.25015 0.75 6.58594 1.08579 6.58594 1.5V3.61538C6.58594 4.0296 6.25015 4.36538 5.83594 4.36538C5.42172 4.36538 5.08594 4.0296 5.08594 3.61538V1.5C5.08594 1.08579 5.42172 0.75 5.83594 0.75Z" fill="white"/>
<path fill-rule="evenodd" clip-rule="evenodd" d="M5.83594 0.75C6.25015 0.75 6.58594 1.08579 6.58594 1.5V3.61538C6.58594 4.0296 6.25015 4.36538 5.83594 4.36538C5.42172 4.36538 5.08594 4.0296 5.08594 3.61538V1.5C5.08594 1.08579 5.42172 0.75 5.83594 0.75Z" fill="#4E5D78" fill-opacity="0.1"/>
<path fill-rule="evenodd" clip-rule="evenodd" d="M11.6706 4.3656H0V2.8656H11.6706V4.3656Z" fill="white"/>
<path fill-rule="evenodd" clip-rule="evenodd" d="M11.6706 4.3656H0V2.8656H11.6706V4.3656Z" fill="#4E5D78" fill-opacity="0.1"/>
<path fill-rule="evenodd" clip-rule="evenodd" d="M5.27408 7.47241L8.43127 3.17175L9.64043 4.05942L6.20256 8.74241C7.0715 9.88167 8.08679 11.0771 9.17556 12.1099C9.47606 12.395 9.48857 12.8697 9.20349 13.1702C8.91842 13.4707 8.44371 13.4832 8.1432 13.1982C7.10089 12.2094 6.12842 11.088 5.27892 10.0006L1.73455 14.8286L0.525391 13.941L4.33897 8.7462C3.4392 7.49555 2.74934 6.38964 2.3631 5.72186C2.15571 5.36331 2.27825 4.90452 2.63681 4.69713C2.99537 4.48974 3.45416 4.61229 3.66155 4.97084C3.99123 5.54083 4.55085 6.44101 5.27408 7.47241Z" fill="white"/>
<path fill-rule="evenodd" clip-rule="evenodd" d="M5.27408 7.47241L8.43127 3.17175L9.64043 4.05942L6.20256 8.74241C7.0715 9.88167 8.08679 11.0771 9.17556 12.1099C9.47606 12.395 9.48857 12.8697 9.20349 13.1702C8.91842 13.4707 8.44371 13.4832 8.1432 13.1982C7.10089 12.2094 6.12842 11.088 5.27892 10.0006L1.73455 14.8286L0.525391 13.941L4.33897 8.7462C3.4392 7.49555 2.74934 6.38964 2.3631 5.72186C2.15571 5.36331 2.27825 4.90452 2.63681 4.69713C2.99537 4.48974 3.45416 4.61229 3.66155 4.97084C3.99123 5.54083 4.55085 6.44101 5.27408 7.47241Z" fill="#4E5D78" fill-opacity="0.1"/>
<path fill-rule="evenodd" clip-rule="evenodd" d="M12.2356 7.28833C12.5319 7.28833 12.8004 7.46275 12.9208 7.73345L16.6855 16.195C16.8539 16.5734 16.6836 17.0167 16.3052 17.1851C15.9267 17.3535 15.4834 17.1832 15.3151 16.8047L14.3837 14.7114H10.0875L9.15613 16.8047C8.98775 17.1832 8.54446 17.3535 8.16601 17.1851C7.78757 17.0167 7.61727 16.5734 7.78565 16.195L11.5504 7.73345C11.6708 7.46275 11.9393 7.28833 12.2356 7.28833ZM10.7549 13.2114H13.7163L12.2356 9.88334L10.7549 13.2114Z" fill="white"/>
<path fill-rule="evenodd" clip-rule="evenodd" d="M12.2356 7.28833C12.5319 7.28833 12.8004 7.46275 12.9208 7.73345L16.6855 16.195C16.8539 16.5734 16.6836 17.0167 16.3052 17.1851C15.9267 17.3535 15.4834 17.1832 15.3151 16.8047L14.3837 14.7114H10.0875L9.15613 16.8047C8.98775 17.1832 8.54446 17.3535 8.16601 17.1851C7.78757 17.0167 7.61727 16.5734 7.78565 16.195L11.5504 7.73345C11.6708 7.46275 11.9393 7.28833 12.2356 7.28833ZM10.7549 13.2114H13.7163L12.2356 9.88334L10.7549 13.2114Z" fill="#4E5D78" fill-opacity="0.1"/>
</svg>
