<svg width="34" height="28" viewBox="0 0 34 28" fill="none" xmlns="http://www.w3.org/2000/svg">
<mask id="path-1-inside-1_1657_5310" fill="white">
<path d="M31.4881 20.5333V3.73333C31.4881 2.74319 31.1065 1.7936 30.4273 1.09347C29.748 0.393331 28.8267 0 27.8661 0H6.13389C5.17327 0 4.25199 0.393331 3.57272 1.09347C2.89346 1.7936 2.51185 2.74319 2.51185 3.73333V20.5333H31.4881ZM31.4881 20.5333L33.8063 25.2933C33.9459 25.5789 34.012 25.8966 33.9982 26.2161C33.9845 26.5356 33.8913 26.846 33.7277 27.1177C33.5641 27.3895 33.3355 27.6133 33.0638 27.7677C32.7922 27.9222 32.4866 28.0022 32.1763 28H1.82367C1.51342 28.0022 1.20782 27.9222 0.936167 27.7677C0.664514 27.6133 0.435921 27.3895 0.272304 27.1177C0.108688 26.846 0.0155365 26.5356 0.00178109 26.2161C-0.0119743 25.8966 0.054128 25.5789 0.19375 25.2933L2.51185 20.5333"/>
</mask>
<path d="M27.8661 0V-2V0ZM6.13389 0V-2V0ZM2.51185 3.73333H0.511853H2.51185ZM33.8063 25.2933L32.0081 26.169L32.0095 26.1717L33.8063 25.2933ZM32.1763 28L32.1907 26C32.1859 26 32.1811 26 32.1763 26V28ZM1.82367 28V26C1.81887 26 1.81407 26 1.80927 26L1.82367 28ZM0.19375 25.2933L1.9905 26.1718L1.99186 26.169L0.19375 25.2933ZM33.4881 20.5333V3.73333H29.4881V20.5333H33.4881ZM33.4881 3.73333C33.4881 2.23196 32.9101 0.780345 31.8627 -0.29919L28.9918 2.48612C29.303 2.80686 29.4881 3.25442 29.4881 3.73333H33.4881ZM31.8627 -0.29919C30.8134 -1.38078 29.377 -2 27.8661 -2V2C28.2764 2 28.6826 2.16744 28.9918 2.48612L31.8627 -0.29919ZM27.8661 -2H6.13389V2H27.8661V-2ZM6.13389 -2C4.62297 -2 3.18663 -1.38078 2.13728 -0.29919L5.00817 2.48612C5.31735 2.16744 5.72356 2 6.13389 2V-2ZM2.13728 -0.29919C1.08992 0.780344 0.511853 2.23196 0.511853 3.73333L4.51185 3.73333C4.51185 3.25442 4.697 2.80686 5.00817 2.48612L2.13728 -0.29919ZM0.511853 3.73333V20.5333H4.51185V3.73333H0.511853ZM2.51185 22.5333H31.4881V18.5333H2.51185V22.5333ZM29.69 21.409L32.0081 26.169L35.6044 24.4176L33.2863 19.6576L29.69 21.409ZM32.0095 26.1717C32.0017 26.1558 31.9996 26.1418 32.0001 26.1301L35.9964 26.3021C36.0244 25.6515 35.8901 25.002 35.603 24.4148L32.0095 26.1717ZM32.0001 26.1301C32.0006 26.1183 32.004 26.1032 32.0144 26.086L35.441 28.1495C35.7786 27.5889 35.9683 26.9528 35.9964 26.3021L32.0001 26.1301ZM32.0144 26.086C32.0249 26.0684 32.044 26.0469 32.0752 26.0292L34.0525 29.5063C34.6269 29.1796 35.1032 28.7105 35.441 28.1495L32.0144 26.086ZM32.0752 26.0292C32.1068 26.0112 32.1468 25.9997 32.1907 26L32.1619 29.9999C32.8264 30.0047 33.4776 29.8332 34.0525 29.5063L32.0752 26.0292ZM32.1763 26H1.82367V30H32.1763V26ZM1.80927 26C1.85322 25.9997 1.89324 26.0112 1.92482 26.0292L-0.0524905 29.5063C0.522394 29.8332 1.17362 30.0047 1.83806 29.9999L1.80927 26ZM1.92482 26.0292C1.95596 26.0469 1.97506 26.0684 1.98564 26.086L-1.44103 28.1495C-1.10322 28.7105 -0.626929 29.1796 -0.0524905 29.5063L1.92482 26.0292ZM1.98564 26.086C1.996 26.1032 1.99942 26.1183 1.99993 26.1301L-1.99637 26.3021C-1.96835 26.9528 -1.77863 27.5889 -1.44103 28.1495L1.98564 26.086ZM1.99993 26.1301C2.00043 26.1418 1.9983 26.1558 1.9905 26.1717L-1.603 24.4148C-1.89005 25.0019 -2.02438 25.6515 -1.99637 26.3021L1.99993 26.1301ZM1.99186 26.169L4.30996 21.409L0.713744 19.6576L-1.60436 24.4176L1.99186 26.169Z" fill="#377DFF" mask="url(#path-1-inside-1_1657_5310)"/>
</svg>
