<svg width="10" height="10" viewBox="0 0 10 10" fill="none" xmlns="http://www.w3.org/2000/svg">
<path fill-rule="evenodd" clip-rule="evenodd" d="M0 4.99989C0 4.69307 0.248731 4.44434 0.555556 4.44434H9.44444C9.75127 4.44434 10 4.69307 10 4.99989C10 5.30672 9.75127 5.55545 9.44444 5.55545H0.555556C0.248731 5.55545 0 5.30672 0 4.99989Z" fill="white"/>
<path fill-rule="evenodd" clip-rule="evenodd" d="M0 4.99989C0 4.69307 0.248731 4.44434 0.555556 4.44434H9.44444C9.75127 4.44434 10 4.69307 10 4.99989C10 5.30672 9.75127 5.55545 9.44444 5.55545H0.555556C0.248731 5.55545 0 5.30672 0 4.99989Z" fill="#4E5D78"/>
<path fill-rule="evenodd" clip-rule="evenodd" d="M4.60705 0.162718C4.82401 -0.0542395 5.17577 -0.0542395 5.39273 0.162718L9.83717 4.60716C10.0541 4.82412 10.0541 5.17588 9.83717 5.39284L5.39273 9.83728C5.17577 10.0542 4.82401 10.0542 4.60705 9.83728C4.3901 9.62033 4.3901 9.26857 4.60705 9.05161L8.65866 5L4.60705 0.948393C4.3901 0.731435 4.3901 0.379676 4.60705 0.162718Z" fill="white"/>
<path fill-rule="evenodd" clip-rule="evenodd" d="M4.60705 0.162718C4.82401 -0.0542395 5.17577 -0.0542395 5.39273 0.162718L9.83717 4.60716C10.0541 4.82412 10.0541 5.17588 9.83717 5.39284L5.39273 9.83728C5.17577 10.0542 4.82401 10.0542 4.60705 9.83728C4.3901 9.62033 4.3901 9.26857 4.60705 9.05161L8.65866 5L4.60705 0.948393C4.3901 0.731435 4.3901 0.379676 4.60705 0.162718Z" fill="#4E5D78"/>
</svg>
