<svg width="16" height="16" viewBox="0 0 16 16" fill="none" xmlns="http://www.w3.org/2000/svg">
<path fill-rule="evenodd" clip-rule="evenodd" d="M16 8C16 12.4183 12.4183 16 8 16C3.58172 16 0 12.4183 0 8C0 3.58172 3.58172 0 8 0C12.4183 0 16 3.58172 16 8ZM1.99998 7.99998C1.99998 11.3137 4.68627 14 7.99998 14C11.3137 14 14 11.3137 14 7.99998C14 4.68627 11.3137 1.99998 7.99998 1.99998C4.68627 1.99998 1.99998 4.68627 1.99998 7.99998Z" fill="#377DFF"/>
<path fill-rule="evenodd" clip-rule="evenodd" d="M8 11.9999C10.2091 11.9999 12 10.2091 12 7.99994C12 5.7908 10.2091 3.99994 8 3.99994C5.79086 3.99994 4 5.7908 4 7.99994C4 10.2091 5.79086 11.9999 8 11.9999Z" fill="#377DFF"/>
</svg>
