<svg width="14" height="12" viewBox="0 0 14 12" fill="none" xmlns="http://www.w3.org/2000/svg">
<path d="M9.70487 1.44264C9.17441 1.44255 8.66512 1.65754 8.28659 2.04136C7.90805 2.42518 7.69054 2.94714 7.68084 3.49492L7.6613 4.63027C7.66015 4.69123 7.64655 4.75125 7.62136 4.80639C7.59618 4.86153 7.56 4.91056 7.51518 4.95024C7.47036 4.98993 7.41793 5.01937 7.36132 5.03666C7.30471 5.05394 7.2452 5.05867 7.1867 5.05053L6.09721 4.89771C4.66364 4.69587 3.29009 4.01394 1.97238 2.88003C1.55501 5.26606 2.37021 6.91899 4.33352 8.19418L5.55282 8.98568C5.61075 9.02329 5.65888 9.07498 5.693 9.13624C5.72711 9.1975 5.74618 9.26646 5.74852 9.33709C5.75086 9.40772 5.73641 9.47786 5.70643 9.54139C5.67645 9.60491 5.63186 9.65989 5.57655 9.70149L4.46543 10.5398C5.12638 10.5824 5.75383 10.5521 6.27449 10.4454C9.56738 9.76637 11.7568 7.20733 11.7568 2.98599C11.7568 2.64142 11.0505 1.44264 9.70487 1.44264ZM6.28496 3.46825C6.29714 2.77338 6.50752 2.09766 6.88977 1.5257C7.27201 0.953736 7.80912 0.510947 8.43386 0.252771C9.0586 -0.00540597 9.74319 -0.0674968 10.4019 0.0742724C11.0607 0.216042 11.6643 0.555371 12.1372 1.04977C12.6334 1.04617 13.0557 1.17592 14 0.584821C13.7662 1.76703 13.651 2.28028 13.1527 2.98599C13.1527 8.49478 9.87447 11.1735 6.54808 11.859C4.26721 12.329 0.950596 11.557 0 10.5319C0.484371 10.493 2.45256 10.2746 3.59021 9.41459C2.62775 8.75933 -1.20325 6.43097 1.31422 0.171049C2.49584 1.59618 3.6942 2.56646 4.90862 3.08115C5.71684 3.42355 5.91505 3.41635 6.28566 3.46897L6.28496 3.46825Z" fill="white"/>
<path d="M9.70487 1.44264C9.17441 1.44255 8.66512 1.65754 8.28659 2.04136C7.90805 2.42518 7.69054 2.94714 7.68084 3.49492L7.6613 4.63027C7.66015 4.69123 7.64655 4.75125 7.62136 4.80639C7.59618 4.86153 7.56 4.91056 7.51518 4.95024C7.47036 4.98993 7.41793 5.01937 7.36132 5.03666C7.30471 5.05394 7.2452 5.05867 7.1867 5.05053L6.09721 4.89771C4.66364 4.69587 3.29009 4.01394 1.97238 2.88003C1.55501 5.26606 2.37021 6.91899 4.33352 8.19418L5.55282 8.98568C5.61075 9.02329 5.65888 9.07498 5.693 9.13624C5.72711 9.1975 5.74618 9.26646 5.74852 9.33709C5.75086 9.40772 5.73641 9.47786 5.70643 9.54139C5.67645 9.60491 5.63186 9.65989 5.57655 9.70149L4.46543 10.5398C5.12638 10.5824 5.75383 10.5521 6.27449 10.4454C9.56738 9.76637 11.7568 7.20733 11.7568 2.98599C11.7568 2.64142 11.0505 1.44264 9.70487 1.44264ZM6.28496 3.46825C6.29714 2.77338 6.50752 2.09766 6.88977 1.5257C7.27201 0.953736 7.80912 0.510947 8.43386 0.252771C9.0586 -0.00540597 9.74319 -0.0674968 10.4019 0.0742724C11.0607 0.216042 11.6643 0.555371 12.1372 1.04977C12.6334 1.04617 13.0557 1.17592 14 0.584821C13.7662 1.76703 13.651 2.28028 13.1527 2.98599C13.1527 8.49478 9.87447 11.1735 6.54808 11.859C4.26721 12.329 0.950596 11.557 0 10.5319C0.484371 10.493 2.45256 10.2746 3.59021 9.41459C2.62775 8.75933 -1.20325 6.43097 1.31422 0.171049C2.49584 1.59618 3.6942 2.56646 4.90862 3.08115C5.71684 3.42355 5.91505 3.41635 6.28566 3.46897L6.28496 3.46825Z" fill="#4E5D78" fill-opacity="0.1"/>
</svg>
