<svg width="16" height="16" viewBox="0 0 16 16" fill="none" xmlns="http://www.w3.org/2000/svg">
<path fill-rule="evenodd" clip-rule="evenodd" d="M2 16C0.895431 16 0 15.1046 0 14V2C0 0.895431 0.895431 0 2 0H4H6.4H14C15.1046 0 16 0.895431 16 2V14C16 15.1046 15.1046 16 14 16H2ZM3.5 14C2.67157 14 2 13.3284 2 12.5V3.5C2 2.67157 2.67157 2 3.5 2H5H6.8H12.5C13.3284 2 14 2.67157 14 3.5V12.5C14 13.3284 13.3284 14 12.5 14H3.5Z" fill="white"/>
<path fill-rule="evenodd" clip-rule="evenodd" d="M2 16C0.895431 16 0 15.1046 0 14V2C0 0.895431 0.895431 0 2 0H4H6.4H14C15.1046 0 16 0.895431 16 2V14C16 15.1046 15.1046 16 14 16H2ZM3.5 14C2.67157 14 2 13.3284 2 12.5V3.5C2 2.67157 2.67157 2 3.5 2H5H6.8H12.5C13.3284 2 14 2.67157 14 3.5V12.5C14 13.3284 13.3284 14 12.5 14H3.5Z" fill="#4E5D78" fill-opacity="0.1"/>
</svg>
