<svg width="36" height="36" viewBox="0 0 36 36" fill="none" xmlns="http://www.w3.org/2000/svg">
<g filter="url(#filter0_bd_1664_15533)">
<circle cx="18" cy="14" r="13" fill="white"/>
<circle cx="18" cy="14" r="13" fill="#4E5D78"/>
</g>
<path d="M17.9999 14.4103L21.0838 17.3797L20.0554 18.3702L18.7267 17.0906V21.0001H17.2731V17.0892L15.9445 18.3702L14.916 17.3797L17.9999 14.4103ZM17.9999 7.00006C19.2478 7.00012 20.4522 7.44184 21.3841 8.24124C22.316 9.04065 22.9104 10.142 23.0542 11.3359C23.9586 11.5734 24.7475 12.1094 25.2831 12.8503C25.8187 13.5912 26.067 14.4898 25.9845 15.3891C25.902 16.2884 25.4939 17.1312 24.8317 17.7701C24.1695 18.4091 23.2952 18.8036 22.3616 18.8847V17.4749C22.696 17.4289 23.0176 17.3192 23.3076 17.1521C23.5975 16.9851 23.85 16.7642 24.0504 16.5021C24.2507 16.2401 24.3948 15.9423 24.4743 15.626C24.5538 15.3098 24.5671 14.9815 24.5135 14.6602C24.4598 14.339 24.3402 14.0312 24.1617 13.755C23.9832 13.4787 23.7493 13.2395 23.4737 13.0512C23.1982 12.8629 22.8864 12.7294 22.5567 12.6584C22.227 12.5875 21.8859 12.5805 21.5533 12.6379C21.6672 12.1275 21.661 11.599 21.5353 11.0912C21.4096 10.5835 21.1676 10.1092 20.8269 9.70313C20.4863 9.29709 20.0556 8.96959 19.5666 8.7446C19.0775 8.51961 18.5423 8.40284 18.0003 8.40284C17.4583 8.40284 16.9231 8.51961 16.434 8.7446C15.9449 8.96959 15.5143 9.29709 15.1736 9.70313C14.8329 10.1092 14.5909 10.5835 14.4652 11.0912C14.3395 11.599 14.3334 12.1275 14.4472 12.6379C13.7841 12.5179 13.0987 12.6566 12.5417 13.0234C11.9848 13.3902 11.602 13.955 11.4774 14.5937C11.3529 15.2323 11.4969 15.8924 11.8777 16.4288C12.2586 16.9652 12.8451 17.3339 13.5082 17.4539L13.639 17.4749V18.8847C12.7054 18.8037 11.831 18.4093 11.1686 17.7704C10.5063 17.1315 10.0982 16.2888 10.0156 15.3894C9.93295 14.4901 10.1811 13.5915 10.7167 12.8505C11.2523 12.1095 12.0412 11.5734 12.9456 11.3359C13.0893 10.1419 13.6836 9.0405 14.6155 8.24107C15.5474 7.44163 16.7519 6.99997 17.9999 7.00006Z" fill="white"/>
<path d="M17.9999 14.4103L21.0838 17.3797L20.0554 18.3702L18.7267 17.0906V21.0001H17.2731V17.0892L15.9445 18.3702L14.916 17.3797L17.9999 14.4103ZM17.9999 7.00006C19.2478 7.00012 20.4522 7.44184 21.3841 8.24124C22.316 9.04065 22.9104 10.142 23.0542 11.3359C23.9586 11.5734 24.7475 12.1094 25.2831 12.8503C25.8187 13.5912 26.067 14.4898 25.9845 15.3891C25.902 16.2884 25.4939 17.1312 24.8317 17.7701C24.1695 18.4091 23.2952 18.8036 22.3616 18.8847V17.4749C22.696 17.4289 23.0176 17.3192 23.3076 17.1521C23.5975 16.9851 23.85 16.7642 24.0504 16.5021C24.2507 16.2401 24.3948 15.9423 24.4743 15.626C24.5538 15.3098 24.5671 14.9815 24.5135 14.6602C24.4598 14.339 24.3402 14.0312 24.1617 13.755C23.9832 13.4787 23.7493 13.2395 23.4737 13.0512C23.1982 12.8629 22.8864 12.7294 22.5567 12.6584C22.227 12.5875 21.8859 12.5805 21.5533 12.6379C21.6672 12.1275 21.661 11.599 21.5353 11.0912C21.4096 10.5835 21.1676 10.1092 20.8269 9.70313C20.4863 9.29709 20.0556 8.96959 19.5666 8.7446C19.0775 8.51961 18.5423 8.40284 18.0003 8.40284C17.4583 8.40284 16.9231 8.51961 16.434 8.7446C15.9449 8.96959 15.5143 9.29709 15.1736 9.70313C14.8329 10.1092 14.5909 10.5835 14.4652 11.0912C14.3395 11.599 14.3334 12.1275 14.4472 12.6379C13.7841 12.5179 13.0987 12.6566 12.5417 13.0234C11.9848 13.3902 11.602 13.955 11.4774 14.5937C11.3529 15.2323 11.4969 15.8924 11.8777 16.4288C12.2586 16.9652 12.8451 17.3339 13.5082 17.4539L13.639 17.4749V18.8847C12.7054 18.8037 11.831 18.4093 11.1686 17.7704C10.5063 17.1315 10.0982 16.2888 10.0156 15.3894C9.93295 14.4901 10.1811 13.5915 10.7167 12.8505C11.2523 12.1095 12.0412 11.5734 12.9456 11.3359C13.0893 10.1419 13.6836 9.0405 14.6155 8.24107C15.5474 7.44163 16.7519 6.99997 17.9999 7.00006Z" fill="#4E5D78" fill-opacity="0.1"/>
<defs>
<filter id="filter0_bd_1664_15533" x="-15" y="-19" width="66" height="66" filterUnits="userSpaceOnUse" color-interpolation-filters="sRGB">
<feFlood flood-opacity="0" result="BackgroundImageFix"/>
<feGaussianBlur in="BackgroundImageFix" stdDeviation="10"/>
<feComposite in2="SourceAlpha" operator="in" result="effect1_backgroundBlur_1664_15533"/>
<feColorMatrix in="SourceAlpha" type="matrix" values="0 0 0 0 0 0 0 0 0 0 0 0 0 0 0 0 0 0 127 0" result="hardAlpha"/>
<feOffset dy="4"/>
<feGaussianBlur stdDeviation="2.5"/>
<feColorMatrix type="matrix" values="0 0 0 0 0 0 0 0 0 0 0 0 0 0 0 0 0 0 0.06 0"/>
<feBlend mode="normal" in2="effect1_backgroundBlur_1664_15533" result="effect2_dropShadow_1664_15533"/>
<feBlend mode="normal" in="SourceGraphic" in2="effect2_dropShadow_1664_15533" result="shape"/>
</filter>
</defs>
</svg>
