<svg width="46" height="46" viewBox="0 0 46 46" fill="none" xmlns="http://www.w3.org/2000/svg">
<g filter="url(#filter0_bd_1626_4)">
<circle cx="23" cy="19" r="15" fill="white"/>
<circle cx="23" cy="19" r="15" fill="#4E5D78"/>
</g>
<path d="M22.9999 19.4102L26.0838 22.3796L25.0554 23.3701L23.7267 22.0905V26H22.2731V22.0891L20.9445 23.3701L19.916 22.3796L22.9999 19.4102ZM22.9999 12C24.2478 12.0001 25.4522 12.4418 26.3841 13.2412C27.316 14.0406 27.9104 15.1419 28.0542 16.3358C28.9586 16.5733 29.7475 17.1094 30.2831 17.8503C30.8187 18.5912 31.067 19.4898 30.9845 20.3891C30.902 21.2884 30.4939 22.1311 29.8317 22.7701C29.1695 23.409 28.2952 23.8035 27.3616 23.8846V22.4748C27.696 22.4288 28.0176 22.3191 28.3076 22.1521C28.5975 21.9851 28.85 21.7641 29.0504 21.5021C29.2507 21.2401 29.3948 20.9422 29.4743 20.626C29.5538 20.3097 29.5671 19.9814 29.5135 19.6601C29.4598 19.3389 29.3402 19.0312 29.1617 18.7549C28.9832 18.4786 28.7493 18.2394 28.4737 18.0511C28.1982 17.8629 27.8864 17.7294 27.5567 17.6584C27.227 17.5874 26.8859 17.5804 26.5533 17.6378C26.6672 17.1274 26.661 16.599 26.5353 16.0912C26.4096 15.5834 26.1676 15.1091 25.8269 14.7031C25.4863 14.297 25.0556 13.9695 24.5666 13.7445C24.0775 13.5195 23.5423 13.4028 23.0003 13.4028C22.4583 13.4028 21.9231 13.5195 21.434 13.7445C20.9449 13.9695 20.5143 14.297 20.1736 14.7031C19.8329 15.1091 19.5909 15.5834 19.4652 16.0912C19.3395 16.599 19.3334 17.1274 19.4472 17.6378C18.7841 17.5179 18.0987 17.6565 17.5417 18.0233C16.9848 18.3901 16.602 18.955 16.4774 19.5936C16.3529 20.2322 16.4969 20.8924 16.8777 21.4288C17.2586 21.9652 17.8451 22.3339 18.5082 22.4538L18.639 22.4748V23.8846C17.7054 23.8036 16.831 23.4092 16.1686 22.7703C15.5063 22.1314 15.0982 21.2887 15.0156 20.3894C14.933 19.4901 15.1811 18.5914 15.7167 17.8504C16.2523 17.1095 17.0412 16.5734 17.9456 16.3358C18.0893 15.1419 18.6836 14.0404 19.6155 13.241C20.5474 12.4416 21.7519 11.9999 22.9999 12Z" fill="white"/>
<path d="M22.9999 19.4102L26.0838 22.3796L25.0554 23.3701L23.7267 22.0905V26H22.2731V22.0891L20.9445 23.3701L19.916 22.3796L22.9999 19.4102ZM22.9999 12C24.2478 12.0001 25.4522 12.4418 26.3841 13.2412C27.316 14.0406 27.9104 15.1419 28.0542 16.3358C28.9586 16.5733 29.7475 17.1094 30.2831 17.8503C30.8187 18.5912 31.067 19.4898 30.9845 20.3891C30.902 21.2884 30.4939 22.1311 29.8317 22.7701C29.1695 23.409 28.2952 23.8035 27.3616 23.8846V22.4748C27.696 22.4288 28.0176 22.3191 28.3076 22.1521C28.5975 21.9851 28.85 21.7641 29.0504 21.5021C29.2507 21.2401 29.3948 20.9422 29.4743 20.626C29.5538 20.3097 29.5671 19.9814 29.5135 19.6601C29.4598 19.3389 29.3402 19.0312 29.1617 18.7549C28.9832 18.4786 28.7493 18.2394 28.4737 18.0511C28.1982 17.8629 27.8864 17.7294 27.5567 17.6584C27.227 17.5874 26.8859 17.5804 26.5533 17.6378C26.6672 17.1274 26.661 16.599 26.5353 16.0912C26.4096 15.5834 26.1676 15.1091 25.8269 14.7031C25.4863 14.297 25.0556 13.9695 24.5666 13.7445C24.0775 13.5195 23.5423 13.4028 23.0003 13.4028C22.4583 13.4028 21.9231 13.5195 21.434 13.7445C20.9449 13.9695 20.5143 14.297 20.1736 14.7031C19.8329 15.1091 19.5909 15.5834 19.4652 16.0912C19.3395 16.599 19.3334 17.1274 19.4472 17.6378C18.7841 17.5179 18.0987 17.6565 17.5417 18.0233C16.9848 18.3901 16.602 18.955 16.4774 19.5936C16.3529 20.2322 16.4969 20.8924 16.8777 21.4288C17.2586 21.9652 17.8451 22.3339 18.5082 22.4538L18.639 22.4748V23.8846C17.7054 23.8036 16.831 23.4092 16.1686 22.7703C15.5063 22.1314 15.0982 21.2887 15.0156 20.3894C14.933 19.4901 15.1811 18.5914 15.7167 17.8504C16.2523 17.1095 17.0412 16.5734 17.9456 16.3358C18.0893 15.1419 18.6836 14.0404 19.6155 13.241C20.5474 12.4416 21.7519 11.9999 22.9999 12Z" fill="#4E5D78" fill-opacity="0.1"/>
<defs>
<filter id="filter0_bd_1626_4" x="-42" y="-46" width="130" height="130" filterUnits="userSpaceOnUse" color-interpolation-filters="sRGB">
<feFlood flood-opacity="0" result="BackgroundImageFix"/>
<feGaussianBlur in="BackgroundImageFix" stdDeviation="25"/>
<feComposite in2="SourceAlpha" operator="in" result="effect1_backgroundBlur_1626_4"/>
<feColorMatrix in="SourceAlpha" type="matrix" values="0 0 0 0 0 0 0 0 0 0 0 0 0 0 0 0 0 0 127 0" result="hardAlpha"/>
<feOffset dy="4"/>
<feGaussianBlur stdDeviation="4"/>
<feColorMatrix type="matrix" values="0 0 0 0 0 0 0 0 0 0 0 0 0 0 0 0 0 0 0.04 0"/>
<feBlend mode="normal" in2="effect1_backgroundBlur_1626_4" result="effect2_dropShadow_1626_4"/>
<feBlend mode="normal" in="SourceGraphic" in2="effect2_dropShadow_1626_4" result="shape"/>
</filter>
</defs>
</svg>
