<svg width="16" height="16" viewBox="0 0 16 16" fill="none" xmlns="http://www.w3.org/2000/svg">
<path fill-rule="evenodd" clip-rule="evenodd" d="M15.6384 4.4072C15.8604 4.52147 16 4.75026 16 4.99998V11.6666C16 11.9164 15.8604 12.1452 15.6384 12.2594C15.4163 12.3737 15.1491 12.3543 14.9458 12.2091L10.2792 8.8758C10.104 8.75066 10 8.54862 10 8.33332C10 8.11801 10.104 7.91597 10.2792 7.79083L14.9458 4.45749C15.1491 4.31234 15.4163 4.29293 15.6384 4.4072ZM11.6471 8.34982L14.5 10.2498V6.49982L11.6471 8.34982Z" fill="white"/>
<path fill-rule="evenodd" clip-rule="evenodd" d="M15.6384 4.4072C15.8604 4.52147 16 4.75026 16 4.99998V11.6666C16 11.9164 15.8604 12.1452 15.6384 12.2594C15.4163 12.3737 15.1491 12.3543 14.9458 12.2091L10.2792 8.8758C10.104 8.75066 10 8.54862 10 8.33332C10 8.11801 10.104 7.91597 10.2792 7.79083L14.9458 4.45749C15.1491 4.31234 15.4163 4.29293 15.6384 4.4072ZM11.6471 8.34982L14.5 10.2498V6.49982L11.6471 8.34982Z" fill="#4E5D78" fill-opacity="0.1"/>
<path fill-rule="evenodd" clip-rule="evenodd" d="M2.07246 4.5C1.72028 4.5 1.43478 4.77982 1.43478 5.125V10.875C1.43478 11.2202 1.72028 11.5 2.07246 11.5H8.92754C9.27972 11.5 9.56522 11.2202 9.56522 10.875V5.125C9.56522 4.77982 9.27972 4.5 8.92754 4.5H2.07246ZM0 4.875C0 3.83947 0.856499 3 1.91304 3H9.08696C10.1435 3 11 3.83947 11 4.875V11.125C11 12.1605 10.1435 13 9.08696 13H1.91304C0.856499 13 0 12.1605 0 11.125V4.875Z" fill="white"/>
<path fill-rule="evenodd" clip-rule="evenodd" d="M2.07246 4.5C1.72028 4.5 1.43478 4.77982 1.43478 5.125V10.875C1.43478 11.2202 1.72028 11.5 2.07246 11.5H8.92754C9.27972 11.5 9.56522 11.2202 9.56522 10.875V5.125C9.56522 4.77982 9.27972 4.5 8.92754 4.5H2.07246ZM0 4.875C0 3.83947 0.856499 3 1.91304 3H9.08696C10.1435 3 11 3.83947 11 4.875V11.125C11 12.1605 10.1435 13 9.08696 13H1.91304C0.856499 13 0 12.1605 0 11.125V4.875Z" fill="#4E5D78" fill-opacity="0.1"/>
</svg>
